# xmcd CD database file
#
# Track frame offsets:
#	150
#	22560
#	45072
#	70707
#	93642
#	117275
#	138220
#	161322
#	183067
#	205452
#
# Disc length: 3028 seconds
#
# Revision: 0
# Processed by: cddbd v1.4PL0 Copyright (c) Steve Scherf et al.
# Submitted via: CDex 1.50beta9
#
DISCID=6e0bd20a
DTITLE=Edgar Joel and Anthony Colon - Oro Salsero - 20 Exitos [CD2 of 2)
DYEAR=1996
DGENRE=Salsa
TTITLE0=Lo que no harias por amor
TTITLE1=Como sera
TTITLE2=El reto
TTITLE3=Invencible amor
TTITLE4=Me acordare de ti
TTITLE5=En las nubes
TTITLE6=Hoguera de amor
TTITLE7=Como en los cuentos
TTITLE8=No puedo esperar
TTITLE9=Como el agua y el sol
EXTD=YEAR: 1996
EXTT0=
EXTT1=
EXTT2=
EXTT3=
EXTT4=
EXTT5=
EXTT6=
EXTT7=
EXTT8=
EXTT9=
PLAYORDER=
